<svg xmlns="http://www.w3.org/2000/svg" xmlns:xlink="http://www.w3.org/1999/xlink" width="1024" zoomAndPan="magnify" viewBox="0 0 768 767.999994" height="1024" preserveAspectRatio="xMidYMid meet" version="1.0"><defs><g/></defs><rect x="-76.8" width="921.6" fill="#ffffff" y="-76.799999" height="921.599993" fill-opacity="1"/><rect x="-76.8" width="921.6" fill="#ffffff" y="-76.799999" height="921.599993" fill-opacity="1"/><g fill="#ffffff" fill-opacity="1"><g transform="translate(188.08417, 449.771047)"><g><path d="M 60.203125 -80.34375 L 60.203125 0 L 14.5625 0 L 14.5625 -200.265625 L 60.203125 -200.265625 L 60.203125 -120.40625 L 124.78125 -120.40625 L 124.78125 -200.265625 L 170.40625 -200.265625 L 170.40625 0 L 124.78125 0 L 124.78125 -80.34375 Z M 60.203125 -80.34375 "/></g></g></g><g fill="#ffffff" fill-opacity="1"><g transform="translate(350.199493, 449.771047)"><g><path d="M 180.125 0 L 170.65625 -118.703125 L 169.4375 -118.703125 L 128.421875 -1.21875 L 101.234375 -1.21875 L 60.203125 -118.703125 L 58.984375 -118.703125 L 49.515625 0 L 3.890625 0 L 21.84375 -200.265625 L 70.390625 -200.265625 L 114.828125 -84.71875 L 159.25 -200.265625 L 207.796875 -200.265625 L 225.75 0 Z M 180.125 0 "/></g></g></g><g fill="#ffffff" fill-opacity="1"><g transform="translate(138.446254, 515.546176)"><g><path d="M 30.328125 -3.03125 C 30.429688 -2.738281 30.484375 -2.425781 30.484375 -2.09375 C 30.484375 -1.445312 30.257812 -0.910156 29.8125 -0.484375 C 29.375 -0.0664062 28.863281 0.140625 28.28125 0.140625 C 27.820312 0.140625 27.40625 0.00390625 27.03125 -0.265625 C 26.65625 -0.546875 26.351562 -0.929688 26.125 -1.421875 L 23.109375 -8.59375 L 8.015625 -8.59375 L 5.03125 -1.375 C 4.863281 -0.882812 4.59375 -0.507812 4.21875 -0.25 C 3.84375 0.0078125 3.429688 0.140625 2.984375 0.140625 C 2.296875 0.140625 1.769531 -0.0351562 1.40625 -0.390625 C 1.050781 -0.742188 0.875 -1.234375 0.875 -1.859375 C 0.875 -1.984375 0.910156 -2.242188 0.984375 -2.640625 L 13.4375 -32.828125 C 13.664062 -33.347656 13.984375 -33.742188 14.390625 -34.015625 C 14.796875 -34.296875 15.257812 -34.40625 15.78125 -34.34375 C 16.269531 -34.34375 16.707031 -34.210938 17.09375 -33.953125 C 17.488281 -33.691406 17.765625 -33.316406 17.921875 -32.828125 Z M 9.859375 -13.046875 L 21.25 -13.046875 L 15.53125 -26.71875 Z M 9.859375 -13.046875 "/></g></g></g><g fill="#ffffff" fill-opacity="1"><g transform="translate(201.649555, 515.546176)"><g><path d="M 18.421875 -34.1875 C 21.472656 -34.1875 24.085938 -33.421875 26.265625 -31.890625 C 28.453125 -30.359375 30.097656 -28.296875 31.203125 -25.703125 C 32.316406 -23.117188 32.875 -20.25 32.875 -17.09375 C 32.875 -13.90625 32.316406 -11.015625 31.203125 -8.421875 C 30.097656 -5.835938 28.453125 -3.785156 26.265625 -2.265625 C 24.085938 -0.753906 21.472656 0 18.421875 0 L 6.40625 0 C 5.75 0 5.191406 -0.226562 4.734375 -0.6875 C 4.273438 -1.144531 4.046875 -1.695312 4.046875 -2.34375 L 4.046875 -31.84375 C 4.046875 -32.5 4.273438 -33.050781 4.734375 -33.5 C 5.191406 -33.957031 5.75 -34.1875 6.40625 -34.1875 Z M 17.921875 -4.5 C 21.242188 -4.5 23.734375 -5.675781 25.390625 -8.03125 C 27.054688 -10.394531 27.890625 -13.414062 27.890625 -17.09375 C 27.890625 -20.738281 27.050781 -23.75 25.375 -26.125 C 23.695312 -28.507812 21.210938 -29.703125 17.921875 -29.703125 L 8.890625 -29.703125 L 8.890625 -4.5 Z M 17.921875 -4.5 "/></g></g></g><g fill="#ffffff" fill-opacity="1"><g transform="translate(268.51497, 515.546176)"><g><path d="M 28.921875 -34.234375 C 29.566406 -34.234375 30.125 -34.019531 30.59375 -33.59375 C 31.070312 -33.175781 31.3125 -32.660156 31.3125 -32.046875 C 31.3125 -31.710938 31.226562 -31.351562 31.0625 -30.96875 L 18.609375 -1.515625 C 18.378906 -1.023438 18.050781 -0.648438 17.625 -0.390625 C 17.207031 -0.128906 16.769531 0 16.3125 0 C 15.882812 -0.03125 15.484375 -0.164062 15.109375 -0.40625 C 14.742188 -0.65625 14.445312 -1.007812 14.21875 -1.46875 L 1.765625 -30.96875 C 1.628906 -31.226562 1.5625 -31.570312 1.5625 -32 C 1.5625 -32.675781 1.804688 -33.222656 2.296875 -33.640625 C 2.785156 -34.066406 3.320312 -34.28125 3.90625 -34.28125 C 4.882812 -34.28125 5.601562 -33.757812 6.0625 -32.71875 L 16.703125 -7.578125 L 26.765625 -32.78125 C 26.992188 -33.226562 27.296875 -33.582031 27.671875 -33.84375 C 28.046875 -34.101562 28.460938 -34.234375 28.921875 -34.234375 Z M 28.921875 -34.234375 "/></g></g></g><g fill="#ffffff" fill-opacity="1"><g transform="translate(333.183127, 515.546176)"><g><path d="M 35.125 -17.09375 C 35.125 -13.800781 34.414062 -10.820312 33 -8.15625 C 31.582031 -5.488281 29.617188 -3.378906 27.109375 -1.828125 C 24.597656 -0.285156 21.765625 0.484375 18.609375 0.484375 C 15.453125 0.484375 12.617188 -0.285156 10.109375 -1.828125 C 7.597656 -3.378906 5.632812 -5.488281 4.21875 -8.15625 C 2.800781 -10.820312 2.09375 -13.800781 2.09375 -17.09375 C 2.09375 -20.382812 2.800781 -23.363281 4.21875 -26.03125 C 5.632812 -28.695312 7.597656 -30.800781 10.109375 -32.34375 C 12.617188 -33.894531 15.453125 -34.671875 18.609375 -34.671875 C 21.765625 -34.671875 24.597656 -33.894531 27.109375 -32.34375 C 29.617188 -30.800781 31.582031 -28.695312 33 -26.03125 C 34.414062 -23.363281 35.125 -20.382812 35.125 -17.09375 Z M 30.09375 -17.09375 C 30.09375 -19.539062 29.601562 -21.75 28.625 -23.71875 C 27.644531 -25.6875 26.285156 -27.226562 24.546875 -28.34375 C 22.804688 -29.46875 20.828125 -30.03125 18.609375 -30.03125 C 16.390625 -30.03125 14.410156 -29.476562 12.671875 -28.375 C 10.929688 -27.269531 9.570312 -25.734375 8.59375 -23.765625 C 7.613281 -21.796875 7.125 -19.570312 7.125 -17.09375 C 7.125 -14.65625 7.613281 -12.445312 8.59375 -10.46875 C 9.570312 -8.5 10.929688 -6.953125 12.671875 -5.828125 C 14.410156 -4.710938 16.390625 -4.15625 18.609375 -4.15625 C 20.828125 -4.15625 22.804688 -4.710938 24.546875 -5.828125 C 26.285156 -6.953125 27.644531 -8.5 28.625 -10.46875 C 29.601562 -12.445312 30.09375 -14.65625 30.09375 -17.09375 Z M 30.09375 -17.09375 "/></g></g></g><g fill="#ffffff" fill-opacity="1"><g transform="translate(402.2458, 515.546176)"><g><path d="M 28.421875 -32.1875 C 29.203125 -31.757812 29.59375 -31.109375 29.59375 -30.234375 C 29.59375 -29.648438 29.398438 -29.113281 29.015625 -28.625 C 28.617188 -28.101562 28.082031 -27.84375 27.40625 -27.84375 C 26.945312 -27.84375 26.503906 -27.957031 26.078125 -28.1875 C 24.054688 -29.320312 21.875 -29.890625 19.53125 -29.890625 C 17.09375 -29.890625 14.9375 -29.351562 13.0625 -28.28125 C 11.1875 -27.207031 9.726562 -25.703125 8.6875 -23.765625 C 7.644531 -21.828125 7.125 -19.601562 7.125 -17.09375 C 7.125 -14.394531 7.660156 -12.066406 8.734375 -10.109375 C 9.816406 -8.160156 11.300781 -6.671875 13.1875 -5.640625 C 15.070312 -4.617188 17.1875 -4.109375 19.53125 -4.109375 C 21.945312 -4.109375 24.128906 -4.691406 26.078125 -5.859375 C 26.472656 -6.054688 26.898438 -6.15625 27.359375 -6.15625 C 28.066406 -6.15625 28.632812 -5.878906 29.0625 -5.328125 C 29.445312 -4.835938 29.640625 -4.316406 29.640625 -3.765625 C 29.640625 -3.367188 29.535156 -3 29.328125 -2.65625 C 29.117188 -2.320312 28.832031 -2.054688 28.46875 -1.859375 C 27.207031 -1.140625 25.785156 -0.566406 24.203125 -0.140625 C 22.617188 0.273438 21.0625 0.484375 19.53125 0.484375 C 16.375 0.484375 13.46875 -0.210938 10.8125 -1.609375 C 8.164062 -3.015625 6.050781 -5.050781 4.46875 -7.71875 C 2.882812 -10.382812 2.09375 -13.507812 2.09375 -17.09375 C 2.09375 -20.382812 2.847656 -23.351562 4.359375 -26 C 5.878906 -28.65625 7.96875 -30.738281 10.625 -32.25 C 13.28125 -33.769531 16.25 -34.53125 19.53125 -34.53125 C 22.695312 -34.53125 25.660156 -33.75 28.421875 -32.1875 Z M 28.421875 -32.1875 "/></g></g></g><g fill="#ffffff" fill-opacity="1"><g transform="translate(465.253807, 515.546176)"><g><path d="M 30.328125 -3.03125 C 30.429688 -2.738281 30.484375 -2.425781 30.484375 -2.09375 C 30.484375 -1.445312 30.257812 -0.910156 29.8125 -0.484375 C 29.375 -0.0664062 28.863281 0.140625 28.28125 0.140625 C 27.820312 0.140625 27.40625 0.00390625 27.03125 -0.265625 C 26.65625 -0.546875 26.351562 -0.929688 26.125 -1.421875 L 23.109375 -8.59375 L 8.015625 -8.59375 L 5.03125 -1.375 C 4.863281 -0.882812 4.59375 -0.507812 4.21875 -0.25 C 3.84375 0.0078125 3.429688 0.140625 2.984375 0.140625 C 2.296875 0.140625 1.769531 -0.0351562 1.40625 -0.390625 C 1.050781 -0.742188 0.875 -1.234375 0.875 -1.859375 C 0.875 -1.984375 0.910156 -2.242188 0.984375 -2.640625 L 13.4375 -32.828125 C 13.664062 -33.347656 13.984375 -33.742188 14.390625 -34.015625 C 14.796875 -34.296875 15.257812 -34.40625 15.78125 -34.34375 C 16.269531 -34.34375 16.707031 -34.210938 17.09375 -33.953125 C 17.488281 -33.691406 17.765625 -33.316406 17.921875 -32.828125 Z M 9.859375 -13.046875 L 21.25 -13.046875 L 15.53125 -26.71875 Z M 9.859375 -13.046875 "/></g></g></g><g fill="#ffffff" fill-opacity="1"><g transform="translate(528.457108, 515.546176)"><g><path d="M 28.421875 -32.1875 C 29.203125 -31.757812 29.59375 -31.109375 29.59375 -30.234375 C 29.59375 -29.648438 29.398438 -29.113281 29.015625 -28.625 C 28.617188 -28.101562 28.082031 -27.84375 27.40625 -27.84375 C 26.945312 -27.84375 26.503906 -27.957031 26.078125 -28.1875 C 24.054688 -29.320312 21.875 -29.890625 19.53125 -29.890625 C 17.09375 -29.890625 14.9375 -29.351562 13.0625 -28.28125 C 11.1875 -27.207031 9.726562 -25.703125 8.6875 -23.765625 C 7.644531 -21.828125 7.125 -19.601562 7.125 -17.09375 C 7.125 -14.394531 7.660156 -12.066406 8.734375 -10.109375 C 9.816406 -8.160156 11.300781 -6.671875 13.1875 -5.640625 C 15.070312 -4.617188 17.1875 -4.109375 19.53125 -4.109375 C 21.945312 -4.109375 24.128906 -4.691406 26.078125 -5.859375 C 26.472656 -6.054688 26.898438 -6.15625 27.359375 -6.15625 C 28.066406 -6.15625 28.632812 -5.878906 29.0625 -5.328125 C 29.445312 -4.835938 29.640625 -4.316406 29.640625 -3.765625 C 29.640625 -3.367188 29.535156 -3 29.328125 -2.65625 C 29.117188 -2.320312 28.832031 -2.054688 28.46875 -1.859375 C 27.207031 -1.140625 25.785156 -0.566406 24.203125 -0.140625 C 22.617188 0.273438 21.0625 0.484375 19.53125 0.484375 C 16.375 0.484375 13.46875 -0.210938 10.8125 -1.609375 C 8.164062 -3.015625 6.050781 -5.050781 4.46875 -7.71875 C 2.882812 -10.382812 2.09375 -13.507812 2.09375 -17.09375 C 2.09375 -20.382812 2.847656 -23.351562 4.359375 -26 C 5.878906 -28.65625 7.96875 -30.738281 10.625 -32.25 C 13.28125 -33.769531 16.25 -34.53125 19.53125 -34.53125 C 22.695312 -34.53125 25.660156 -33.75 28.421875 -32.1875 Z M 28.421875 -32.1875 "/></g></g></g><g fill="#ffffff" fill-opacity="1"><g transform="translate(591.465115, 515.546176)"><g><path d="M 8.890625 -2.390625 C 8.890625 -1.710938 8.644531 -1.144531 8.15625 -0.6875 C 7.664062 -0.226562 7.097656 0 6.453125 0 C 5.734375 0 5.148438 -0.226562 4.703125 -0.6875 C 4.265625 -1.144531 4.046875 -1.710938 4.046875 -2.390625 L 4.046875 -31.84375 C 4.046875 -32.5 4.273438 -33.050781 4.734375 -33.5 C 5.191406 -33.957031 5.78125 -34.1875 6.5 -34.1875 C 7.144531 -34.1875 7.703125 -33.957031 8.171875 -33.5 C 8.648438 -33.050781 8.890625 -32.5 8.890625 -31.84375 Z M 8.890625 -2.390625 "/></g></g></g><g fill="#ffffff" fill-opacity="1"><g transform="translate(636.260198, 515.546176)"><g><path d="M 30.328125 -3.03125 C 30.429688 -2.738281 30.484375 -2.425781 30.484375 -2.09375 C 30.484375 -1.445312 30.257812 -0.910156 29.8125 -0.484375 C 29.375 -0.0664062 28.863281 0.140625 28.28125 0.140625 C 27.820312 0.140625 27.40625 0.00390625 27.03125 -0.265625 C 26.65625 -0.546875 26.351562 -0.929688 26.125 -1.421875 L 23.109375 -8.59375 L 8.015625 -8.59375 L 5.03125 -1.375 C 4.863281 -0.882812 4.59375 -0.507812 4.21875 -0.25 C 3.84375 0.0078125 3.429688 0.140625 2.984375 0.140625 C 2.296875 0.140625 1.769531 -0.0351562 1.40625 -0.390625 C 1.050781 -0.742188 0.875 -1.234375 0.875 -1.859375 C 0.875 -1.984375 0.910156 -2.242188 0.984375 -2.640625 L 13.4375 -32.828125 C 13.664062 -33.347656 13.984375 -33.742188 14.390625 -34.015625 C 14.796875 -34.296875 15.257812 -34.40625 15.78125 -34.34375 C 16.269531 -34.34375 16.707031 -34.210938 17.09375 -33.953125 C 17.488281 -33.691406 17.765625 -33.316406 17.921875 -32.828125 Z M 9.859375 -13.046875 L 21.25 -13.046875 L 15.53125 -26.71875 Z M 9.859375 -13.046875 "/></g></g></g></svg>