<svg xmlns="http://www.w3.org/2000/svg" xmlns:xlink="http://www.w3.org/1999/xlink" width="500" zoomAndPan="magnify" viewBox="0 0 375 374.999991" height="500" preserveAspectRatio="xMidYMid meet" version="1.0"><defs><g/><clipPath id="dd0d03bfbb"><path d="M 76.777344 73 L 298.027344 73 L 298.027344 302 L 76.777344 302 Z M 76.777344 73 " clip-rule="nonzero"/></clipPath></defs><g clip-path="url(#dd0d03bfbb)"><path fill="#ffffff" d="M 159.660156 76.703125 C 161.453125 76.253906 163.257812 75.847656 165.070312 75.484375 C 166.882812 75.121094 168.703125 74.804688 170.535156 74.53125 C 172.363281 74.257812 174.199219 74.027344 176.039062 73.84375 C 177.878906 73.65625 179.722656 73.519531 181.566406 73.421875 C 183.414062 73.328125 185.261719 73.277344 187.113281 73.273438 C 188.960938 73.265625 190.808594 73.304688 192.65625 73.390625 C 194.503906 73.476562 196.347656 73.605469 198.191406 73.777344 C 200.03125 73.953125 201.867188 74.171875 203.699219 74.433594 C 205.527344 74.699219 207.351562 75.007812 209.167969 75.359375 C 210.980469 75.710938 212.789062 76.105469 214.585938 76.546875 C 216.378906 76.984375 218.164062 77.46875 219.9375 77.996094 C 221.710938 78.519531 223.46875 79.089844 225.214844 79.703125 C 226.960938 80.3125 228.6875 80.96875 230.402344 81.664062 C 232.117188 82.359375 233.8125 83.097656 235.488281 83.875 C 237.167969 84.652344 238.824219 85.472656 240.460938 86.328125 C 242.101562 87.1875 243.714844 88.085938 245.308594 89.023438 C 246.90625 89.960938 248.476562 90.9375 250.023438 91.949219 C 251.570312 92.964844 253.089844 94.015625 254.585938 95.101562 C 256.082031 96.191406 257.550781 97.3125 258.992188 98.472656 C 260.433594 99.628906 261.84375 100.824219 263.226562 102.050781 C 264.609375 103.277344 265.964844 104.539062 267.285156 105.832031 C 268.605469 107.125 269.898438 108.449219 271.152344 109.804688 C 272.410156 111.164062 273.636719 112.546875 274.824219 113.964844 C 276.015625 115.378906 277.171875 116.820312 278.292969 118.292969 C 279.410156 119.765625 280.496094 121.261719 281.542969 122.789062 C 282.589844 124.3125 283.597656 125.859375 284.570312 127.433594 C 285.542969 129.007812 286.476562 130.601562 287.371094 132.222656 C 288.265625 133.839844 289.121094 135.480469 289.9375 137.140625 C 290.75 138.800781 291.523438 140.476562 292.257812 142.175781 C 292.992188 143.875 293.683594 145.589844 294.332031 147.320312 C 294.984375 149.050781 295.589844 150.796875 296.15625 152.558594 C 296.722656 154.320312 297.242188 156.09375 297.722656 157.878906 C 297.898438 158.539062 298.074219 159.210938 298.242188 159.894531 L 296.496094 160.503906 C 296.316406 159.785156 296.136719 159.070312 295.941406 158.351562 C 295.46875 156.582031 294.949219 154.824219 294.390625 153.078125 C 293.832031 151.335938 293.226562 149.605469 292.582031 147.886719 C 291.9375 146.171875 291.25 144.472656 290.523438 142.792969 C 289.792969 141.109375 289.023438 139.445312 288.214844 137.800781 C 287.40625 136.15625 286.554688 134.535156 285.667969 132.929688 C 284.777344 131.328125 283.851562 129.75 282.882812 128.191406 C 281.917969 126.632812 280.914062 125.101562 279.871094 123.59375 C 278.828125 122.085938 277.75 120.601562 276.636719 119.148438 C 275.523438 117.691406 274.375 116.265625 273.191406 114.867188 C 272.007812 113.464844 270.789062 112.097656 269.539062 110.757812 C 268.285156 109.417969 267.003906 108.109375 265.6875 106.832031 C 264.371094 105.554688 263.027344 104.3125 261.652344 103.101562 C 260.273438 101.890625 258.871094 100.714844 257.4375 99.574219 C 256.003906 98.429688 254.542969 97.324219 253.054688 96.253906 C 251.566406 95.183594 250.054688 94.148438 248.515625 93.152344 C 246.976562 92.15625 245.414062 91.199219 243.828125 90.277344 C 242.242188 89.359375 240.636719 88.480469 239.007812 87.636719 C 237.378906 86.796875 235.730469 85.996094 234.0625 85.234375 C 232.398438 84.472656 230.710938 83.753906 229.007812 83.078125 C 227.304688 82.398438 225.585938 81.761719 223.851562 81.167969 C 222.117188 80.574219 220.371094 80.023438 218.609375 79.515625 C 216.847656 79.007812 215.078125 78.542969 213.292969 78.121094 C 211.507812 77.699219 209.714844 77.320312 207.914062 76.988281 C 206.113281 76.652344 204.300781 76.363281 202.484375 76.121094 C 200.667969 75.875 198.847656 75.675781 197.023438 75.519531 C 195.195312 75.363281 193.367188 75.25 191.535156 75.183594 C 189.703125 75.117188 187.871094 75.097656 186.039062 75.121094 C 184.207031 75.144531 182.375 75.210938 180.546875 75.324219 C 178.714844 75.4375 176.890625 75.59375 175.070312 75.796875 C 173.246094 76 171.429688 76.246094 169.621094 76.539062 C 167.8125 76.828125 166.011719 77.164062 164.21875 77.542969 C 162.425781 77.921875 160.640625 78.347656 158.867188 78.8125 C 159.144531 78.117188 159.414062 77.417969 159.660156 76.707031 Z M 78.523438 214.730469 C 78.671875 215.320312 78.820312 215.902344 78.976562 216.488281 C 79.453125 218.265625 79.972656 220.027344 80.535156 221.777344 C 81.097656 223.527344 81.703125 225.261719 82.347656 226.980469 C 82.996094 228.699219 83.683594 230.402344 84.414062 232.089844 C 85.148438 233.773438 85.917969 235.441406 86.730469 237.089844 C 87.542969 238.738281 88.394531 240.363281 89.289062 241.972656 C 90.179688 243.578125 91.113281 245.160156 92.082031 246.722656 C 93.054688 248.28125 94.0625 249.816406 95.105469 251.328125 C 96.152344 252.839844 97.234375 254.324219 98.351562 255.78125 C 99.472656 257.238281 100.625 258.667969 101.8125 260.070312 C 103.003906 261.472656 104.222656 262.84375 105.480469 264.183594 C 106.734375 265.527344 108.023438 266.835938 109.34375 268.113281 C 110.664062 269.390625 112.015625 270.636719 113.398438 271.847656 C 114.777344 273.058594 116.1875 274.238281 117.628906 275.378906 C 119.066406 276.523438 120.53125 277.628906 122.027344 278.699219 C 123.519531 279.769531 125.039062 280.804688 126.582031 281.800781 C 128.125 282.796875 129.695312 283.753906 131.285156 284.671875 C 132.875 285.59375 134.488281 286.472656 136.125 287.3125 C 137.757812 288.152344 139.410156 288.949219 141.085938 289.710938 C 142.757812 290.46875 144.449219 291.1875 146.160156 291.863281 C 147.867188 292.539062 149.589844 293.171875 151.332031 293.761719 C 153.070312 294.351562 154.824219 294.902344 156.589844 295.40625 C 158.359375 295.910156 160.136719 296.375 161.925781 296.792969 C 163.714844 297.207031 165.511719 297.582031 167.320312 297.914062 C 169.128906 298.242188 170.945312 298.527344 172.765625 298.765625 C 174.585938 299.007812 176.414062 299.203125 178.246094 299.355469 C 180.078125 299.503906 181.910156 299.609375 183.746094 299.671875 C 185.582031 299.734375 187.421875 299.75 189.257812 299.71875 C 191.09375 299.691406 192.929688 299.617188 194.765625 299.496094 C 196.597656 299.375 198.425781 299.210938 200.253906 299.003906 C 202.078125 298.792969 203.898438 298.539062 205.710938 298.242188 C 207.523438 297.941406 209.328125 297.601562 211.125 297.214844 C 212.921875 296.828125 214.707031 296.394531 216.480469 295.921875 C 216.195312 296.617188 215.917969 297.320312 215.660156 298.03125 C 213.863281 298.488281 212.058594 298.902344 210.242188 299.273438 C 208.425781 299.640625 206.601562 299.964844 204.769531 300.246094 C 202.9375 300.527344 201.101562 300.765625 199.257812 300.953125 C 197.414062 301.144531 195.566406 301.292969 193.714844 301.394531 C 191.863281 301.496094 190.011719 301.550781 188.15625 301.5625 C 186.304688 301.574219 184.453125 301.539062 182.597656 301.460938 C 180.746094 301.378906 178.898438 301.257812 177.054688 301.085938 C 175.207031 300.917969 173.367188 300.703125 171.53125 300.445312 C 169.695312 300.1875 167.867188 299.882812 166.046875 299.535156 C 164.226562 299.1875 162.414062 298.792969 160.613281 298.359375 C 158.8125 297.921875 157.023438 297.441406 155.246094 296.917969 C 153.464844 296.394531 151.703125 295.828125 149.953125 295.21875 C 148.199219 294.609375 146.464844 293.960938 144.746094 293.265625 C 143.027344 292.570312 141.328125 291.835938 139.644531 291.058594 C 137.960938 290.285156 136.296875 289.46875 134.65625 288.609375 C 133.011719 287.75 131.390625 286.855469 129.789062 285.917969 C 128.191406 284.980469 126.613281 284.007812 125.0625 282.992188 C 123.511719 281.980469 121.984375 280.929688 120.484375 279.84375 C 118.984375 278.753906 117.507812 277.632812 116.0625 276.472656 C 114.617188 275.3125 113.199219 274.117188 111.8125 272.890625 C 110.421875 271.660156 109.066406 270.398438 107.738281 269.105469 C 106.414062 267.8125 105.117188 266.484375 103.855469 265.128906 C 102.59375 263.769531 101.367188 262.382812 100.171875 260.964844 C 98.976562 259.546875 97.816406 258.101562 96.695312 256.628906 C 95.570312 255.15625 94.480469 253.65625 93.429688 252.128906 C 92.378906 250.601562 91.367188 249.050781 90.390625 247.472656 C 89.414062 245.898438 88.480469 244.296875 87.582031 242.675781 C 86.683594 241.054688 85.828125 239.414062 85.007812 237.75 C 84.191406 236.085938 83.414062 234.402344 82.679688 232.703125 C 81.941406 231 81.25 229.28125 80.597656 227.546875 C 79.945312 225.8125 79.335938 224.0625 78.769531 222.296875 C 78.203125 220.53125 77.679688 218.753906 77.199219 216.964844 C 77.054688 216.425781 76.917969 215.882812 76.777344 215.34375 Z M 78.523438 214.730469 " fill-opacity="1" fill-rule="evenodd"/></g><g fill="#ffffff" fill-opacity="1"><g transform="translate(46.077284, 189.154192)"><g><path d="M 10.203125 -12.578125 L 10.203125 -10.1875 L 4.109375 -10.1875 L 4.109375 -7.5 L 9.5 -7.5 L 9.5 -5.109375 L 4.109375 -5.109375 L 4.109375 -2.390625 L 10.4375 -2.390625 L 10.4375 0 L 1.625 0 L 1.625 -12.578125 Z M 10.203125 -12.578125 "/></g></g></g><g fill="#ffffff" fill-opacity="1"><g transform="translate(71.131664, 189.154192)"><g><path d="M 8.34375 -9.53125 C 7.25 -10.132812 6.296875 -10.4375 5.484375 -10.4375 C 4.941406 -10.4375 4.519531 -10.328125 4.21875 -10.109375 C 3.914062 -9.898438 3.765625 -9.578125 3.765625 -9.140625 C 3.765625 -8.742188 3.984375 -8.394531 4.421875 -8.09375 C 4.859375 -7.789062 5.441406 -7.503906 6.171875 -7.234375 C 6.765625 -7.015625 7.269531 -6.765625 7.6875 -6.484375 C 8.113281 -6.203125 8.460938 -5.816406 8.734375 -5.328125 C 9.015625 -4.835938 9.15625 -4.21875 9.15625 -3.46875 C 9.15625 -2.820312 8.988281 -2.222656 8.65625 -1.671875 C 8.320312 -1.117188 7.828125 -0.675781 7.171875 -0.34375 C 6.523438 -0.0195312 5.753906 0.140625 4.859375 0.140625 C 4.097656 0.140625 3.347656 0.03125 2.609375 -0.1875 C 1.867188 -0.414062 1.179688 -0.757812 0.546875 -1.21875 L 1.640625 -3.140625 C 2.078125 -2.828125 2.570312 -2.566406 3.125 -2.359375 C 3.6875 -2.148438 4.1875 -2.046875 4.625 -2.046875 C 5.15625 -2.046875 5.613281 -2.15625 6 -2.375 C 6.382812 -2.601562 6.578125 -2.96875 6.578125 -3.46875 C 6.578125 -4.113281 5.96875 -4.675781 4.75 -5.15625 C 4.03125 -5.445312 3.429688 -5.722656 2.953125 -5.984375 C 2.472656 -6.242188 2.0625 -6.617188 1.71875 -7.109375 C 1.375 -7.597656 1.203125 -8.210938 1.203125 -8.953125 C 1.203125 -10.035156 1.554688 -10.90625 2.265625 -11.5625 C 2.972656 -12.226562 3.921875 -12.59375 5.109375 -12.65625 C 6.046875 -12.65625 6.828125 -12.546875 7.453125 -12.328125 C 8.078125 -12.117188 8.6875 -11.820312 9.28125 -11.4375 Z M 8.34375 -9.53125 "/></g></g></g><g fill="#ffffff" fill-opacity="1"><g transform="translate(94.767915, 189.154192)"><g><path d="M 5.4375 -12.578125 C 6.976562 -12.578125 8.164062 -12.195312 9 -11.4375 C 9.84375 -10.6875 10.265625 -9.65625 10.265625 -8.34375 C 10.265625 -7.59375 10.117188 -6.890625 9.828125 -6.234375 C 9.546875 -5.578125 9.078125 -5.035156 8.421875 -4.609375 C 7.765625 -4.191406 6.914062 -3.984375 5.875 -3.984375 L 4.109375 -3.984375 L 4.109375 0 L 1.625 0 L 1.625 -12.578125 Z M 5.859375 -6.390625 C 6.328125 -6.390625 6.703125 -6.492188 6.984375 -6.703125 C 7.273438 -6.921875 7.484375 -7.171875 7.609375 -7.453125 C 7.734375 -7.734375 7.796875 -8.003906 7.796875 -8.265625 C 7.796875 -8.710938 7.664062 -9.144531 7.40625 -9.5625 C 7.144531 -9.976562 6.632812 -10.1875 5.875 -10.1875 L 4.109375 -10.1875 L 4.109375 -6.390625 Z M 5.859375 -6.390625 "/></g></g></g><g fill="#ffffff" fill-opacity="1"><g transform="translate(119.309716, 189.154192)"><g><path d="M 10.203125 -12.578125 L 10.203125 -10.1875 L 4.109375 -10.1875 L 4.109375 -7.5 L 9.5 -7.5 L 9.5 -5.109375 L 4.109375 -5.109375 L 4.109375 -2.390625 L 10.4375 -2.390625 L 10.4375 0 L 1.625 0 L 1.625 -12.578125 Z M 10.203125 -12.578125 "/></g></g></g><g fill="#ffffff" fill-opacity="1"><g transform="translate(144.364093, 189.154192)"><g><path d="M 11.0625 -1.046875 C 10.738281 -0.785156 10.226562 -0.519531 9.53125 -0.25 C 8.84375 0.0078125 8.085938 0.140625 7.265625 0.140625 C 5.953125 0.140625 4.8125 -0.144531 3.84375 -0.71875 C 2.875 -1.289062 2.132812 -2.054688 1.625 -3.015625 C 1.113281 -3.984375 0.859375 -5.039062 0.859375 -6.1875 C 0.859375 -7.445312 1.113281 -8.570312 1.625 -9.5625 C 2.132812 -10.5625 2.847656 -11.335938 3.765625 -11.890625 C 4.691406 -12.441406 5.757812 -12.71875 6.96875 -12.71875 C 7.738281 -12.71875 8.445312 -12.613281 9.09375 -12.40625 C 9.738281 -12.207031 10.304688 -11.953125 10.796875 -11.640625 L 9.828125 -9.296875 C 8.929688 -9.984375 8.007812 -10.328125 7.0625 -10.328125 C 6.425781 -10.328125 5.828125 -10.148438 5.265625 -9.796875 C 4.703125 -9.441406 4.253906 -8.957031 3.921875 -8.34375 C 3.597656 -7.738281 3.4375 -7.066406 3.4375 -6.328125 C 3.4375 -5.515625 3.585938 -4.800781 3.890625 -4.1875 C 4.203125 -3.582031 4.640625 -3.109375 5.203125 -2.765625 C 5.773438 -2.421875 6.445312 -2.25 7.21875 -2.25 C 7.832031 -2.25 8.382812 -2.347656 8.875 -2.546875 C 9.363281 -2.753906 9.75 -2.992188 10.03125 -3.265625 Z M 11.0625 -1.046875 "/></g></g></g><g fill="#ffffff" fill-opacity="1"><g transform="translate(169.948125, 189.154192)"><g><path d="M 4.109375 -12.578125 L 4.109375 0 L 1.625 0 L 1.625 -12.578125 Z M 4.109375 -12.578125 "/></g></g></g><g fill="#ffffff" fill-opacity="1"><g transform="translate(189.347084, 189.154192)"><g><path d="M 7.84375 -2.46875 L 3.671875 -2.46875 L 2.65625 0 L 0.203125 0 L 5.875 -13.078125 L 6.015625 -13.078125 L 11.6875 0 L 8.828125 0 Z M 7.03125 -4.546875 L 5.8125 -7.609375 L 4.546875 -4.546875 Z M 7.03125 -4.546875 "/></g></g></g><g fill="#ffffff" fill-opacity="1"><g transform="translate(214.91403, 189.154192)"><g><path d="M 4.109375 -12.578125 L 4.109375 -2.390625 L 10.015625 -2.390625 L 10.015625 0 L 1.625 0 L 1.625 -12.578125 Z M 4.109375 -12.578125 "/></g></g></g><g fill="#ffffff" fill-opacity="1"><g transform="translate(239.541268, 189.154192)"><g><path d="M 4.109375 -12.578125 L 4.109375 0 L 1.625 0 L 1.625 -12.578125 Z M 4.109375 -12.578125 "/></g></g></g><g fill="#ffffff" fill-opacity="1"><g transform="translate(258.940238, 189.154192)"><g><path d="M 8.34375 -9.53125 C 7.25 -10.132812 6.296875 -10.4375 5.484375 -10.4375 C 4.941406 -10.4375 4.519531 -10.328125 4.21875 -10.109375 C 3.914062 -9.898438 3.765625 -9.578125 3.765625 -9.140625 C 3.765625 -8.742188 3.984375 -8.394531 4.421875 -8.09375 C 4.859375 -7.789062 5.441406 -7.503906 6.171875 -7.234375 C 6.765625 -7.015625 7.269531 -6.765625 7.6875 -6.484375 C 8.113281 -6.203125 8.460938 -5.816406 8.734375 -5.328125 C 9.015625 -4.835938 9.15625 -4.21875 9.15625 -3.46875 C 9.15625 -2.820312 8.988281 -2.222656 8.65625 -1.671875 C 8.320312 -1.117188 7.828125 -0.675781 7.171875 -0.34375 C 6.523438 -0.0195312 5.753906 0.140625 4.859375 0.140625 C 4.097656 0.140625 3.347656 0.03125 2.609375 -0.1875 C 1.867188 -0.414062 1.179688 -0.757812 0.546875 -1.21875 L 1.640625 -3.140625 C 2.078125 -2.828125 2.570312 -2.566406 3.125 -2.359375 C 3.6875 -2.148438 4.1875 -2.046875 4.625 -2.046875 C 5.15625 -2.046875 5.613281 -2.15625 6 -2.375 C 6.382812 -2.601562 6.578125 -2.96875 6.578125 -3.46875 C 6.578125 -4.113281 5.96875 -4.675781 4.75 -5.15625 C 4.03125 -5.445312 3.429688 -5.722656 2.953125 -5.984375 C 2.472656 -6.242188 2.0625 -6.617188 1.71875 -7.109375 C 1.375 -7.597656 1.203125 -8.210938 1.203125 -8.953125 C 1.203125 -10.035156 1.554688 -10.90625 2.265625 -11.5625 C 2.972656 -12.226562 3.921875 -12.59375 5.109375 -12.65625 C 6.046875 -12.65625 6.828125 -12.546875 7.453125 -12.328125 C 8.078125 -12.117188 8.6875 -11.820312 9.28125 -11.4375 Z M 8.34375 -9.53125 "/></g></g></g><g fill="#ffffff" fill-opacity="1"><g transform="translate(282.576497, 189.154192)"><g><path d="M 9.25 -12.578125 L 9.25 -10.1875 L 6.1875 -10.1875 L 6.1875 0 L 3.703125 0 L 3.703125 -10.1875 L 0.765625 -10.1875 L 0.765625 -12.578125 Z M 9.25 -12.578125 "/></g></g></g><g fill="#ffffff" fill-opacity="1"><g transform="translate(306.264004, 189.154192)"><g><path d="M 7.84375 -2.46875 L 3.671875 -2.46875 L 2.65625 0 L 0.203125 0 L 5.875 -13.078125 L 6.015625 -13.078125 L 11.6875 0 L 8.828125 0 Z M 7.03125 -4.546875 L 5.8125 -7.609375 L 4.546875 -4.546875 Z M 7.03125 -4.546875 "/></g></g></g><g fill="#ffffff" fill-opacity="1"><g transform="translate(331.83095, 189.154192)"><g><path d="M 8.34375 -9.53125 C 7.25 -10.132812 6.296875 -10.4375 5.484375 -10.4375 C 4.941406 -10.4375 4.519531 -10.328125 4.21875 -10.109375 C 3.914062 -9.898438 3.765625 -9.578125 3.765625 -9.140625 C 3.765625 -8.742188 3.984375 -8.394531 4.421875 -8.09375 C 4.859375 -7.789062 5.441406 -7.503906 6.171875 -7.234375 C 6.765625 -7.015625 7.269531 -6.765625 7.6875 -6.484375 C 8.113281 -6.203125 8.460938 -5.816406 8.734375 -5.328125 C 9.015625 -4.835938 9.15625 -4.21875 9.15625 -3.46875 C 9.15625 -2.820312 8.988281 -2.222656 8.65625 -1.671875 C 8.320312 -1.117188 7.828125 -0.675781 7.171875 -0.34375 C 6.523438 -0.0195312 5.753906 0.140625 4.859375 0.140625 C 4.097656 0.140625 3.347656 0.03125 2.609375 -0.1875 C 1.867188 -0.414062 1.179688 -0.757812 0.546875 -1.21875 L 1.640625 -3.140625 C 2.078125 -2.828125 2.570312 -2.566406 3.125 -2.359375 C 3.6875 -2.148438 4.1875 -2.046875 4.625 -2.046875 C 5.15625 -2.046875 5.613281 -2.15625 6 -2.375 C 6.382812 -2.601562 6.578125 -2.96875 6.578125 -3.46875 C 6.578125 -4.113281 5.96875 -4.675781 4.75 -5.15625 C 4.03125 -5.445312 3.429688 -5.722656 2.953125 -5.984375 C 2.472656 -6.242188 2.0625 -6.617188 1.71875 -7.109375 C 1.375 -7.597656 1.203125 -8.210938 1.203125 -8.953125 C 1.203125 -10.035156 1.554688 -10.90625 2.265625 -11.5625 C 2.972656 -12.226562 3.921875 -12.59375 5.109375 -12.65625 C 6.046875 -12.65625 6.828125 -12.546875 7.453125 -12.328125 C 8.078125 -12.117188 8.6875 -11.820312 9.28125 -11.4375 Z M 8.34375 -9.53125 "/></g></g></g><g fill="#ffffff" fill-opacity="1"><g transform="translate(120.472175, 217.209035)"><g><path d="M 8.203125 -8.03125 L 8.203125 0.28125 L 8.15625 0.28125 L 2.375 -5.328125 L 2.40625 0 L 1.109375 0 L 1.109375 -8.3125 L 1.171875 -8.3125 L 6.9375 -2.625 L 6.921875 -8.03125 Z M 8.203125 -8.03125 "/></g></g></g><g fill="#ffffff" fill-opacity="1"><g transform="translate(134.195084, 217.209035)"><g><path d="M 5.234375 -1.890625 L 2.3125 -1.890625 L 1.53125 0 L 0.265625 0 L 3.8125 -8.359375 L 3.890625 -8.359375 L 7.453125 0 L 5.96875 0 Z M 4.796875 -2.984375 L 3.796875 -5.53125 L 2.75 -2.984375 Z M 4.796875 -2.984375 "/></g></g></g><g fill="#ffffff" fill-opacity="1"><g transform="translate(146.318461, 217.209035)"><g/></g></g><g fill="#ffffff" fill-opacity="1"><g transform="translate(154.26097, 217.209035)"><g><path d="M 1.109375 -8.03125 L 3.390625 -8.03125 C 4.390625 -8.03125 5.21875 -7.832031 5.875 -7.4375 C 6.539062 -7.039062 7.023438 -6.53125 7.328125 -5.90625 C 7.628906 -5.28125 7.78125 -4.613281 7.78125 -3.90625 C 7.78125 -3.125 7.597656 -2.4375 7.234375 -1.84375 C 6.867188 -1.25 6.378906 -0.789062 5.765625 -0.46875 C 5.160156 -0.15625 4.492188 0 3.765625 0 L 1.109375 0 Z M 3.546875 -1.234375 C 4.117188 -1.234375 4.625 -1.335938 5.0625 -1.546875 C 5.5 -1.765625 5.835938 -2.082031 6.078125 -2.5 C 6.328125 -2.914062 6.453125 -3.414062 6.453125 -4 C 6.453125 -4.625 6.316406 -5.144531 6.046875 -5.5625 C 5.773438 -5.988281 5.429688 -6.300781 5.015625 -6.5 C 4.609375 -6.707031 4.179688 -6.8125 3.734375 -6.8125 L 2.390625 -6.8125 L 2.390625 -1.234375 Z M 3.546875 -1.234375 "/></g></g></g><g fill="#ffffff" fill-opacity="1"><g transform="translate(167.068285, 217.209035)"><g><path d="M 6.4375 -8.03125 L 6.4375 -6.796875 L 2.390625 -6.796875 L 2.390625 -4.65625 L 5.984375 -4.65625 L 5.984375 -3.421875 L 2.390625 -3.421875 L 2.390625 -1.234375 L 6.578125 -1.234375 L 6.578125 0 L 1.109375 0 L 1.109375 -8.03125 Z M 6.4375 -8.03125 "/></g></g></g><g fill="#ffffff" fill-opacity="1"><g transform="translate(178.739376, 217.209035)"><g><path d="M 5.984375 -8.03125 L 5.984375 -6.796875 L 2.390625 -6.796875 L 2.390625 -4.53125 L 5.515625 -4.53125 L 5.515625 -3.3125 L 2.390625 -3.3125 L 2.390625 0 L 1.109375 0 L 1.109375 -8.03125 Z M 5.984375 -8.03125 "/></g></g></g><g fill="#ffffff" fill-opacity="1"><g transform="translate(189.693427, 217.209035)"><g><path d="M 6.4375 -8.03125 L 6.4375 -6.796875 L 2.390625 -6.796875 L 2.390625 -4.65625 L 5.984375 -4.65625 L 5.984375 -3.421875 L 2.390625 -3.421875 L 2.390625 -1.234375 L 6.578125 -1.234375 L 6.578125 0 L 1.109375 0 L 1.109375 -8.03125 Z M 6.4375 -8.03125 "/></g></g></g><g fill="#ffffff" fill-opacity="1"><g transform="translate(201.364522, 217.209035)"><g><path d="M 5.3125 -6.390625 C 4.625 -6.753906 4.007812 -6.9375 3.46875 -6.9375 C 3.070312 -6.9375 2.757812 -6.847656 2.53125 -6.671875 C 2.300781 -6.492188 2.1875 -6.253906 2.1875 -5.953125 C 2.1875 -5.648438 2.332031 -5.394531 2.625 -5.1875 C 2.914062 -4.988281 3.320312 -4.789062 3.84375 -4.59375 C 4.238281 -4.445312 4.578125 -4.285156 4.859375 -4.109375 C 5.140625 -3.929688 5.367188 -3.6875 5.546875 -3.375 C 5.734375 -3.0625 5.828125 -2.671875 5.828125 -2.203125 C 5.828125 -1.773438 5.722656 -1.390625 5.515625 -1.046875 C 5.304688 -0.703125 5 -0.425781 4.59375 -0.21875 C 4.1875 -0.0078125 3.707031 0.09375 3.15625 0.09375 C 2.664062 0.09375 2.1875 0.0195312 1.71875 -0.125 C 1.25 -0.28125 0.832031 -0.492188 0.46875 -0.765625 L 1.03125 -1.765625 C 1.300781 -1.554688 1.625 -1.382812 2 -1.25 C 2.375 -1.113281 2.71875 -1.046875 3.03125 -1.046875 C 3.425781 -1.046875 3.769531 -1.140625 4.0625 -1.328125 C 4.351562 -1.515625 4.5 -1.800781 4.5 -2.1875 C 4.5 -2.5 4.375 -2.757812 4.125 -2.96875 C 3.882812 -3.175781 3.539062 -3.363281 3.09375 -3.53125 C 2.644531 -3.695312 2.269531 -3.863281 1.96875 -4.03125 C 1.664062 -4.195312 1.40625 -4.425781 1.1875 -4.71875 C 0.96875 -5.019531 0.859375 -5.394531 0.859375 -5.84375 C 0.859375 -6.5 1.078125 -7.023438 1.515625 -7.421875 C 1.960938 -7.828125 2.550781 -8.046875 3.28125 -8.078125 C 3.8125 -8.078125 4.273438 -8.015625 4.671875 -7.890625 C 5.078125 -7.765625 5.453125 -7.59375 5.796875 -7.375 Z M 5.3125 -6.390625 "/></g></g></g><g fill="#ffffff" fill-opacity="1"><g transform="translate(212.19724, 217.209035)"><g><path d="M 5.234375 -1.890625 L 2.3125 -1.890625 L 1.53125 0 L 0.265625 0 L 3.8125 -8.359375 L 3.890625 -8.359375 L 7.453125 0 L 5.96875 0 Z M 4.796875 -2.984375 L 3.796875 -5.53125 L 2.75 -2.984375 Z M 4.796875 -2.984375 "/></g></g></g><g fill="#ffffff" fill-opacity="1"><g transform="translate(224.320619, 217.209035)"><g/></g></g><g fill="#ffffff" fill-opacity="1"><g transform="translate(232.263131, 217.209035)"><g><path d="M 1.109375 -8.03125 L 3.390625 -8.03125 C 4.390625 -8.03125 5.21875 -7.832031 5.875 -7.4375 C 6.539062 -7.039062 7.023438 -6.53125 7.328125 -5.90625 C 7.628906 -5.28125 7.78125 -4.613281 7.78125 -3.90625 C 7.78125 -3.125 7.597656 -2.4375 7.234375 -1.84375 C 6.867188 -1.25 6.378906 -0.789062 5.765625 -0.46875 C 5.160156 -0.15625 4.492188 0 3.765625 0 L 1.109375 0 Z M 3.546875 -1.234375 C 4.117188 -1.234375 4.625 -1.335938 5.0625 -1.546875 C 5.5 -1.765625 5.835938 -2.082031 6.078125 -2.5 C 6.328125 -2.914062 6.453125 -3.414062 6.453125 -4 C 6.453125 -4.625 6.316406 -5.144531 6.046875 -5.5625 C 5.773438 -5.988281 5.429688 -6.300781 5.015625 -6.5 C 4.609375 -6.707031 4.179688 -6.8125 3.734375 -6.8125 L 2.390625 -6.8125 L 2.390625 -1.234375 Z M 3.546875 -1.234375 "/></g></g></g><g fill="#ffffff" fill-opacity="1"><g transform="translate(245.070449, 217.209035)"><g><path d="M 0.609375 -4 C 0.609375 -4.738281 0.789062 -5.421875 1.15625 -6.046875 C 1.519531 -6.679688 2.015625 -7.1875 2.640625 -7.5625 C 3.273438 -7.9375 3.960938 -8.125 4.703125 -8.125 C 5.441406 -8.125 6.125 -7.9375 6.75 -7.5625 C 7.382812 -7.1875 7.890625 -6.679688 8.265625 -6.046875 C 8.640625 -5.410156 8.828125 -4.726562 8.828125 -4 C 8.828125 -3.257812 8.640625 -2.578125 8.265625 -1.953125 C 7.890625 -1.328125 7.382812 -0.828125 6.75 -0.453125 C 6.125 -0.0859375 5.441406 0.09375 4.703125 0.09375 C 3.960938 0.09375 3.273438 -0.0859375 2.640625 -0.453125 C 2.015625 -0.816406 1.519531 -1.3125 1.15625 -1.9375 C 0.789062 -2.5625 0.609375 -3.25 0.609375 -4 Z M 1.9375 -4 C 1.9375 -3.476562 2.0625 -3 2.3125 -2.5625 C 2.5625 -2.132812 2.898438 -1.789062 3.328125 -1.53125 C 3.753906 -1.269531 4.226562 -1.140625 4.75 -1.140625 C 5.25 -1.140625 5.707031 -1.265625 6.125 -1.515625 C 6.550781 -1.773438 6.882812 -2.125 7.125 -2.5625 C 7.375 -3 7.5 -3.476562 7.5 -4 C 7.5 -4.519531 7.375 -5 7.125 -5.4375 C 6.875 -5.882812 6.535156 -6.238281 6.109375 -6.5 C 5.679688 -6.757812 5.210938 -6.890625 4.703125 -6.890625 C 4.191406 -6.890625 3.722656 -6.757812 3.296875 -6.5 C 2.878906 -6.238281 2.546875 -5.882812 2.296875 -5.4375 C 2.054688 -5 1.9375 -4.519531 1.9375 -4 Z M 1.9375 -4 "/></g></g></g><g fill="#ffffff" fill-opacity="1"><g transform="translate(146.18298, 231.917339)"><g><path d="M 1.109375 -8.03125 L 3.390625 -8.03125 C 4.390625 -8.03125 5.21875 -7.832031 5.875 -7.4375 C 6.539062 -7.039062 7.023438 -6.53125 7.328125 -5.90625 C 7.628906 -5.28125 7.78125 -4.613281 7.78125 -3.90625 C 7.78125 -3.125 7.597656 -2.4375 7.234375 -1.84375 C 6.867188 -1.25 6.378906 -0.789062 5.765625 -0.46875 C 5.160156 -0.15625 4.492188 0 3.765625 0 L 1.109375 0 Z M 3.546875 -1.234375 C 4.117188 -1.234375 4.625 -1.335938 5.0625 -1.546875 C 5.5 -1.765625 5.835938 -2.082031 6.078125 -2.5 C 6.328125 -2.914062 6.453125 -3.414062 6.453125 -4 C 6.453125 -4.625 6.316406 -5.144531 6.046875 -5.5625 C 5.773438 -5.988281 5.429688 -6.300781 5.015625 -6.5 C 4.609375 -6.707031 4.179688 -6.8125 3.734375 -6.8125 L 2.390625 -6.8125 L 2.390625 -1.234375 Z M 3.546875 -1.234375 "/></g></g></g><g fill="#ffffff" fill-opacity="1"><g transform="translate(158.990295, 231.917339)"><g><path d="M 6.4375 -8.03125 L 6.4375 -6.796875 L 2.390625 -6.796875 L 2.390625 -4.65625 L 5.984375 -4.65625 L 5.984375 -3.421875 L 2.390625 -3.421875 L 2.390625 -1.234375 L 6.578125 -1.234375 L 6.578125 0 L 1.109375 0 L 1.109375 -8.03125 Z M 6.4375 -8.03125 "/></g></g></g><g fill="#ffffff" fill-opacity="1"><g transform="translate(170.661387, 231.917339)"><g><path d="M 7.59375 -8.03125 L 4 0.375 L 0.40625 -8.03125 L 1.9375 -8.03125 L 4.0625 -2.75 L 6.09375 -8.03125 Z M 7.59375 -8.03125 "/></g></g></g><g fill="#ffffff" fill-opacity="1"><g transform="translate(183.082612, 231.917339)"><g><path d="M 6.4375 -8.03125 L 6.4375 -6.796875 L 2.390625 -6.796875 L 2.390625 -4.65625 L 5.984375 -4.65625 L 5.984375 -3.421875 L 2.390625 -3.421875 L 2.390625 -1.234375 L 6.578125 -1.234375 L 6.578125 0 L 1.109375 0 L 1.109375 -8.03125 Z M 6.4375 -8.03125 "/></g></g></g><g fill="#ffffff" fill-opacity="1"><g transform="translate(194.753702, 231.917339)"><g><path d="M 1.109375 -8.03125 L 3.390625 -8.03125 C 4.390625 -8.03125 5.21875 -7.832031 5.875 -7.4375 C 6.539062 -7.039062 7.023438 -6.53125 7.328125 -5.90625 C 7.628906 -5.28125 7.78125 -4.613281 7.78125 -3.90625 C 7.78125 -3.125 7.597656 -2.4375 7.234375 -1.84375 C 6.867188 -1.25 6.378906 -0.789062 5.765625 -0.46875 C 5.160156 -0.15625 4.492188 0 3.765625 0 L 1.109375 0 Z M 3.546875 -1.234375 C 4.117188 -1.234375 4.625 -1.335938 5.0625 -1.546875 C 5.5 -1.765625 5.835938 -2.082031 6.078125 -2.5 C 6.328125 -2.914062 6.453125 -3.414062 6.453125 -4 C 6.453125 -4.625 6.316406 -5.144531 6.046875 -5.5625 C 5.773438 -5.988281 5.429688 -6.300781 5.015625 -6.5 C 4.609375 -6.707031 4.179688 -6.8125 3.734375 -6.8125 L 2.390625 -6.8125 L 2.390625 -1.234375 Z M 3.546875 -1.234375 "/></g></g></g><g fill="#ffffff" fill-opacity="1"><g transform="translate(207.561017, 231.917339)"><g><path d="M 0.609375 -4 C 0.609375 -4.738281 0.789062 -5.421875 1.15625 -6.046875 C 1.519531 -6.679688 2.015625 -7.1875 2.640625 -7.5625 C 3.273438 -7.9375 3.960938 -8.125 4.703125 -8.125 C 5.441406 -8.125 6.125 -7.9375 6.75 -7.5625 C 7.382812 -7.1875 7.890625 -6.679688 8.265625 -6.046875 C 8.640625 -5.410156 8.828125 -4.726562 8.828125 -4 C 8.828125 -3.257812 8.640625 -2.578125 8.265625 -1.953125 C 7.890625 -1.328125 7.382812 -0.828125 6.75 -0.453125 C 6.125 -0.0859375 5.441406 0.09375 4.703125 0.09375 C 3.960938 0.09375 3.273438 -0.0859375 2.640625 -0.453125 C 2.015625 -0.816406 1.519531 -1.3125 1.15625 -1.9375 C 0.789062 -2.5625 0.609375 -3.25 0.609375 -4 Z M 1.9375 -4 C 1.9375 -3.476562 2.0625 -3 2.3125 -2.5625 C 2.5625 -2.132812 2.898438 -1.789062 3.328125 -1.53125 C 3.753906 -1.269531 4.226562 -1.140625 4.75 -1.140625 C 5.25 -1.140625 5.707031 -1.265625 6.125 -1.515625 C 6.550781 -1.773438 6.882812 -2.125 7.125 -2.5625 C 7.375 -3 7.5 -3.476562 7.5 -4 C 7.5 -4.519531 7.375 -5 7.125 -5.4375 C 6.875 -5.882812 6.535156 -6.238281 6.109375 -6.5 C 5.679688 -6.757812 5.210938 -6.890625 4.703125 -6.890625 C 4.191406 -6.890625 3.722656 -6.757812 3.296875 -6.5 C 2.878906 -6.238281 2.546875 -5.882812 2.296875 -5.4375 C 2.054688 -5 1.9375 -4.519531 1.9375 -4 Z M 1.9375 -4 "/></g></g></g><g fill="#ffffff" fill-opacity="1"><g transform="translate(221.405276, 231.917339)"><g><path d="M 5.5 0 L 3.6875 -2.796875 L 2.390625 -2.796875 L 2.390625 0 L 1.109375 0 L 1.109375 -8.03125 L 3.359375 -8.03125 C 4.253906 -8.03125 4.972656 -7.800781 5.515625 -7.34375 C 6.054688 -6.882812 6.328125 -6.253906 6.328125 -5.453125 C 6.328125 -4.953125 6.222656 -4.488281 6.015625 -4.0625 C 5.804688 -3.644531 5.476562 -3.320312 5.03125 -3.09375 L 6.984375 0 Z M 2.390625 -4.03125 L 3.546875 -4.03125 C 4.054688 -4.03125 4.425781 -4.171875 4.65625 -4.453125 C 4.894531 -4.734375 5.015625 -5.050781 5.015625 -5.40625 C 5.015625 -5.613281 4.96875 -5.820312 4.875 -6.03125 C 4.789062 -6.238281 4.640625 -6.414062 4.421875 -6.5625 C 4.210938 -6.71875 3.929688 -6.796875 3.578125 -6.796875 L 2.390625 -6.796875 Z M 2.390625 -4.03125 "/></g></g></g><g fill="#ffffff" fill-opacity="1"><g transform="translate(153.227957, 249.809166)"><g><path d="M 0.734375 -5.328125 L 2.25 -5.328125 C 2.914062 -5.328125 3.46875 -5.195312 3.90625 -4.9375 C 4.34375 -4.675781 4.660156 -4.335938 4.859375 -3.921875 C 5.066406 -3.503906 5.171875 -3.0625 5.171875 -2.59375 C 5.171875 -2.070312 5.046875 -1.613281 4.796875 -1.21875 C 4.554688 -0.832031 4.234375 -0.53125 3.828125 -0.3125 C 3.421875 -0.101562 2.976562 0 2.5 0 L 0.734375 0 Z M 2.359375 -0.828125 C 2.734375 -0.828125 3.066406 -0.894531 3.359375 -1.03125 C 3.648438 -1.175781 3.875 -1.382812 4.03125 -1.65625 C 4.195312 -1.9375 4.28125 -2.269531 4.28125 -2.65625 C 4.28125 -3.070312 4.191406 -3.421875 4.015625 -3.703125 C 3.835938 -3.984375 3.609375 -4.1875 3.328125 -4.3125 C 3.054688 -4.445312 2.773438 -4.515625 2.484375 -4.515625 L 1.59375 -4.515625 L 1.59375 -0.828125 Z M 2.359375 -0.828125 "/></g></g></g><g fill="#ffffff" fill-opacity="1"><g transform="translate(161.733286, 249.809166)"><g><path d="M 4.265625 -5.328125 L 4.265625 -4.515625 L 1.59375 -4.515625 L 1.59375 -3.09375 L 3.984375 -3.09375 L 3.984375 -2.265625 L 1.59375 -2.265625 L 1.59375 -0.828125 L 4.375 -0.828125 L 4.375 0 L 0.734375 0 L 0.734375 -5.328125 Z M 4.265625 -5.328125 "/></g></g></g><g fill="#ffffff" fill-opacity="1"><g transform="translate(169.48405, 249.809166)"><g><path d="M 3.53125 -4.25 C 3.070312 -4.488281 2.664062 -4.609375 2.3125 -4.609375 C 2.039062 -4.609375 1.828125 -4.546875 1.671875 -4.421875 C 1.523438 -4.304688 1.453125 -4.148438 1.453125 -3.953125 C 1.453125 -3.753906 1.546875 -3.585938 1.734375 -3.453125 C 1.929688 -3.316406 2.203125 -3.179688 2.546875 -3.046875 C 2.816406 -2.953125 3.046875 -2.84375 3.234375 -2.71875 C 3.421875 -2.601562 3.570312 -2.441406 3.6875 -2.234375 C 3.8125 -2.035156 3.875 -1.78125 3.875 -1.46875 C 3.875 -1.1875 3.800781 -0.929688 3.65625 -0.703125 C 3.519531 -0.472656 3.316406 -0.285156 3.046875 -0.140625 C 2.773438 -0.00390625 2.457031 0.0625 2.09375 0.0625 C 1.769531 0.0625 1.453125 0.015625 1.140625 -0.078125 C 0.828125 -0.179688 0.550781 -0.320312 0.3125 -0.5 L 0.6875 -1.171875 C 0.863281 -1.035156 1.078125 -0.921875 1.328125 -0.828125 C 1.578125 -0.742188 1.804688 -0.703125 2.015625 -0.703125 C 2.273438 -0.703125 2.5 -0.757812 2.6875 -0.875 C 2.882812 -1 2.984375 -1.191406 2.984375 -1.453125 C 2.984375 -1.660156 2.898438 -1.832031 2.734375 -1.96875 C 2.578125 -2.101562 2.351562 -2.226562 2.0625 -2.34375 C 1.757812 -2.457031 1.503906 -2.566406 1.296875 -2.671875 C 1.097656 -2.785156 0.925781 -2.941406 0.78125 -3.140625 C 0.644531 -3.335938 0.578125 -3.585938 0.578125 -3.890625 C 0.578125 -4.316406 0.722656 -4.660156 1.015625 -4.921875 C 1.304688 -5.191406 1.695312 -5.335938 2.1875 -5.359375 C 2.539062 -5.359375 2.847656 -5.316406 3.109375 -5.234375 C 3.378906 -5.160156 3.628906 -5.050781 3.859375 -4.90625 Z M 3.53125 -4.25 "/></g></g></g><g fill="#ffffff" fill-opacity="1"><g transform="translate(176.67805, 249.809166)"><g><path d="M 0.734375 -5.328125 L 2.25 -5.328125 C 2.914062 -5.328125 3.46875 -5.195312 3.90625 -4.9375 C 4.34375 -4.675781 4.660156 -4.335938 4.859375 -3.921875 C 5.066406 -3.503906 5.171875 -3.0625 5.171875 -2.59375 C 5.171875 -2.070312 5.046875 -1.613281 4.796875 -1.21875 C 4.554688 -0.832031 4.234375 -0.53125 3.828125 -0.3125 C 3.421875 -0.101562 2.976562 0 2.5 0 L 0.734375 0 Z M 2.359375 -0.828125 C 2.734375 -0.828125 3.066406 -0.894531 3.359375 -1.03125 C 3.648438 -1.175781 3.875 -1.382812 4.03125 -1.65625 C 4.195312 -1.9375 4.28125 -2.269531 4.28125 -2.65625 C 4.28125 -3.070312 4.191406 -3.421875 4.015625 -3.703125 C 3.835938 -3.984375 3.609375 -4.1875 3.328125 -4.3125 C 3.054688 -4.445312 2.773438 -4.515625 2.484375 -4.515625 L 1.59375 -4.515625 L 1.59375 -0.828125 Z M 2.359375 -0.828125 "/></g></g></g><g fill="#ffffff" fill-opacity="1"><g transform="translate(185.183378, 249.809166)"><g><path d="M 4.265625 -5.328125 L 4.265625 -4.515625 L 1.59375 -4.515625 L 1.59375 -3.09375 L 3.984375 -3.09375 L 3.984375 -2.265625 L 1.59375 -2.265625 L 1.59375 -0.828125 L 4.375 -0.828125 L 4.375 0 L 0.734375 0 L 0.734375 -5.328125 Z M 4.265625 -5.328125 "/></g></g></g><g fill="#ffffff" fill-opacity="1"><g transform="translate(192.934142, 249.809166)"><g/></g></g><g fill="#ffffff" fill-opacity="1"><g transform="translate(198.208758, 249.809166)"><g><path d="M 3.765625 -0.828125 L 3.765625 0 L 0.390625 0 L 0.65625 -0.265625 C 1.144531 -0.742188 1.523438 -1.132812 1.796875 -1.4375 C 2.078125 -1.75 2.304688 -2.0625 2.484375 -2.375 C 2.671875 -2.6875 2.765625 -2.976562 2.765625 -3.25 C 2.765625 -3.519531 2.679688 -3.722656 2.515625 -3.859375 C 2.359375 -4.003906 2.160156 -4.078125 1.921875 -4.078125 C 1.660156 -4.078125 1.457031 -4.003906 1.3125 -3.859375 C 1.175781 -3.710938 1.109375 -3.546875 1.109375 -3.359375 C 1.109375 -3.054688 1.203125 -2.804688 1.390625 -2.609375 L 0.875 -2.125 C 0.695312 -2.226562 0.550781 -2.40625 0.4375 -2.65625 C 0.332031 -2.90625 0.28125 -3.132812 0.28125 -3.34375 C 0.28125 -3.613281 0.347656 -3.867188 0.484375 -4.109375 C 0.628906 -4.347656 0.835938 -4.535156 1.109375 -4.671875 C 1.378906 -4.816406 1.695312 -4.890625 2.0625 -4.890625 C 2.375 -4.890625 2.648438 -4.816406 2.890625 -4.671875 C 3.128906 -4.535156 3.316406 -4.347656 3.453125 -4.109375 C 3.585938 -3.867188 3.65625 -3.609375 3.65625 -3.328125 C 3.65625 -3.046875 3.585938 -2.769531 3.453125 -2.5 C 3.328125 -2.226562 3.175781 -1.972656 3 -1.734375 C 2.820312 -1.503906 2.570312 -1.203125 2.25 -0.828125 Z M 3.765625 -0.828125 "/></g></g></g><g fill="#ffffff" fill-opacity="1"><g transform="translate(205.241586, 249.809166)"><g><path d="M 2.296875 0.015625 C 1.898438 0.015625 1.546875 -0.078125 1.234375 -0.265625 C 0.929688 -0.460938 0.691406 -0.742188 0.515625 -1.109375 C 0.335938 -1.484375 0.25 -1.925781 0.25 -2.4375 C 0.25 -3.269531 0.429688 -3.882812 0.796875 -4.28125 C 1.160156 -4.6875 1.660156 -4.890625 2.296875 -4.890625 C 2.679688 -4.890625 3.023438 -4.789062 3.328125 -4.59375 C 3.640625 -4.40625 3.882812 -4.125 4.0625 -3.75 C 4.238281 -3.382812 4.328125 -2.945312 4.328125 -2.4375 C 4.328125 -1.914062 4.238281 -1.46875 4.0625 -1.09375 C 3.882812 -0.726562 3.640625 -0.453125 3.328125 -0.265625 C 3.023438 -0.078125 2.679688 0.015625 2.296875 0.015625 Z M 2.28125 -0.796875 C 2.664062 -0.796875 2.953125 -0.945312 3.140625 -1.25 C 3.335938 -1.550781 3.4375 -1.957031 3.4375 -2.46875 C 3.4375 -2.957031 3.335938 -3.347656 3.140625 -3.640625 C 2.953125 -3.929688 2.664062 -4.070312 2.28125 -4.0625 C 1.90625 -4.070312 1.617188 -3.925781 1.421875 -3.625 C 1.234375 -3.332031 1.140625 -2.9375 1.140625 -2.4375 C 1.140625 -1.9375 1.234375 -1.535156 1.421875 -1.234375 C 1.617188 -0.941406 1.90625 -0.796875 2.28125 -0.796875 Z M 2.28125 -0.796875 "/></g></g></g><g fill="#ffffff" fill-opacity="1"><g transform="translate(212.750592, 249.809166)"><g><path d="M 1.71875 -4.84375 L 1.71875 0 L 0.859375 0 L 0.859375 -4.015625 L 0.375 -4.015625 L 0.375 -4.84375 Z M 1.71875 -4.84375 "/></g></g></g><g fill="#ffffff" fill-opacity="1"><g transform="translate(218.135101, 249.809166)"><g><path d="M 3.453125 -4.84375 L 1.578125 0 L 0.625 0 L 2.21875 -4.015625 L 0.25 -4.015625 L 0.25 -4.84375 Z M 3.453125 -4.84375 "/></g></g></g><g fill="#ffffff" fill-opacity="1"><g transform="translate(116.916967, 143.43452)"><g><path d="M 8.34375 0 L 6.9375 0 L 6.9375 -3.46875 L 2.5 -3.46875 L 2.5 0 L 1.09375 0 L 1.09375 -8.359375 L 2.5 -8.359375 L 2.5 -4.734375 L 6.9375 -4.734375 L 6.9375 -8.359375 L 8.34375 -8.359375 Z M 8.34375 0 "/></g></g></g><g fill="#ffffff" fill-opacity="1"><g transform="translate(131.140446, 143.43452)"><g><path d="M 7.0625 -7.09375 L 2.5 -7.09375 L 2.5 -4.828125 L 6.59375 -4.828125 L 6.59375 -3.5625 L 2.5 -3.5625 L 2.5 -1.265625 L 7.203125 -1.265625 L 7.203125 0 L 1.09375 0 L 1.09375 -8.359375 L 7.0625 -8.359375 Z M 7.0625 -7.09375 "/></g></g></g><g fill="#ffffff" fill-opacity="1"><g transform="translate(143.752255, 143.43452)"><g><path d="M 6.40625 0 L 4.875 -2.53125 C 4.789062 -2.519531 4.660156 -2.515625 4.484375 -2.515625 L 2.5 -2.515625 L 2.5 0 L 1.09375 0 L 1.09375 -8.359375 L 4.484375 -8.359375 C 5.554688 -8.359375 6.382812 -8.109375 6.96875 -7.609375 C 7.5625 -7.109375 7.859375 -6.40625 7.859375 -5.5 C 7.859375 -4.832031 7.707031 -4.265625 7.40625 -3.796875 C 7.101562 -3.335938 6.675781 -3.003906 6.125 -2.796875 L 8 0 Z M 2.5 -3.78125 L 4.484375 -3.78125 C 5.835938 -3.78125 6.515625 -4.34375 6.515625 -5.46875 C 6.515625 -6.550781 5.835938 -7.09375 4.484375 -7.09375 L 2.5 -7.09375 Z M 2.5 -3.78125 "/></g></g></g><g fill="#ffffff" fill-opacity="1"><g transform="translate(157.163922, 143.43452)"><g><path d="M 9.9375 0 L 8.625 0 L 8.625 -6.25 L 5.984375 -0.875 L 5.0625 -0.875 L 2.421875 -6.25 L 2.421875 0 L 1.09375 0 L 1.09375 -8.359375 L 2.765625 -8.359375 L 5.53125 -2.8125 L 8.265625 -8.359375 L 9.9375 -8.359375 Z M 9.9375 0 "/></g></g></g><g fill="#ffffff" fill-opacity="1"><g transform="translate(172.987125, 143.43452)"><g><path d="M 2.5 0 L 1.09375 0 L 1.09375 -8.359375 L 2.5 -8.359375 Z M 2.5 0 "/></g></g></g><g fill="#ffffff" fill-opacity="1"><g transform="translate(181.372776, 143.43452)"><g><path d="M 1.09375 -8.359375 L 4.53125 -8.359375 C 5.78125 -8.359375 6.8125 -7.960938 7.625 -7.171875 C 8.4375 -6.390625 8.84375 -5.390625 8.84375 -4.171875 C 8.84375 -2.960938 8.429688 -1.960938 7.609375 -1.171875 C 6.796875 -0.390625 5.753906 0 4.484375 0 L 1.09375 0 Z M 2.5 -7.09375 L 2.5 -1.265625 L 4.5625 -1.265625 C 5.382812 -1.265625 6.066406 -1.535156 6.609375 -2.078125 C 7.148438 -2.628906 7.421875 -3.328125 7.421875 -4.171875 C 7.421875 -5.015625 7.140625 -5.710938 6.578125 -6.265625 C 6.015625 -6.816406 5.320312 -7.09375 4.5 -7.09375 Z M 2.5 -7.09375 "/></g></g></g><g fill="#ffffff" fill-opacity="1"><g transform="translate(195.405238, 143.43452)"><g><path d="M 6.5 -1.890625 L 2.28125 -1.890625 L 1.484375 0 L 0.015625 0 L 3.703125 -8.359375 L 5.140625 -8.359375 L 8.796875 0 L 7.296875 0 Z M 5.953125 -3.140625 L 4.375 -6.859375 L 2.8125 -3.140625 Z M 5.953125 -3.140625 "/></g></g></g><g fill="#ffffff" fill-opacity="1"><g transform="translate(208.995986, 143.43452)"><g/></g></g><g fill="#ffffff" fill-opacity="1"><g transform="translate(216.856354, 143.43452)"><g><path d="M 9.9375 0 L 8.625 0 L 8.625 -6.25 L 5.984375 -0.875 L 5.0625 -0.875 L 2.421875 -6.25 L 2.421875 0 L 1.09375 0 L 1.09375 -8.359375 L 2.765625 -8.359375 L 5.53125 -2.8125 L 8.265625 -8.359375 L 9.9375 -8.359375 Z M 9.9375 0 "/></g></g></g><g fill="#ffffff" fill-opacity="1"><g transform="translate(232.679557, 143.43452)"><g><path d="M 6.5 -1.890625 L 2.28125 -1.890625 L 1.484375 0 L 0.015625 0 L 3.703125 -8.359375 L 5.140625 -8.359375 L 8.796875 0 L 7.296875 0 Z M 5.953125 -3.140625 L 4.375 -6.859375 L 2.8125 -3.140625 Z M 5.953125 -3.140625 "/></g></g></g><g fill="#ffffff" fill-opacity="1"><g transform="translate(246.270312, 143.43452)"><g><path d="M 2.5 0 L 1.09375 0 L 1.09375 -8.359375 L 2.5 -8.359375 Z M 2.5 0 "/></g></g></g><g fill="#ffffff" fill-opacity="1"><g transform="translate(254.65597, 143.43452)"><g><path d="M 6.5 -1.890625 L 2.28125 -1.890625 L 1.484375 0 L 0.015625 0 L 3.703125 -8.359375 L 5.140625 -8.359375 L 8.796875 0 L 7.296875 0 Z M 5.953125 -3.140625 L 4.375 -6.859375 L 2.8125 -3.140625 Z M 5.953125 -3.140625 "/></g></g></g><g fill="#ffffff" fill-opacity="1"><g transform="translate(134.154892, 159.500937)"><g><path d="M 6.5 -1.890625 L 2.28125 -1.890625 L 1.484375 0 L 0.015625 0 L 3.703125 -8.359375 L 5.140625 -8.359375 L 8.796875 0 L 7.296875 0 Z M 5.953125 -3.140625 L 4.375 -6.859375 L 2.8125 -3.140625 Z M 5.953125 -3.140625 "/></g></g></g><g fill="#ffffff" fill-opacity="1"><g transform="translate(147.745643, 159.500937)"><g><path d="M 1.09375 -8.359375 L 4.53125 -8.359375 C 5.78125 -8.359375 6.8125 -7.960938 7.625 -7.171875 C 8.4375 -6.390625 8.84375 -5.390625 8.84375 -4.171875 C 8.84375 -2.960938 8.429688 -1.960938 7.609375 -1.171875 C 6.796875 -0.390625 5.753906 0 4.484375 0 L 1.09375 0 Z M 2.5 -7.09375 L 2.5 -1.265625 L 4.5625 -1.265625 C 5.382812 -1.265625 6.066406 -1.535156 6.609375 -2.078125 C 7.148438 -2.628906 7.421875 -3.328125 7.421875 -4.171875 C 7.421875 -5.015625 7.140625 -5.710938 6.578125 -6.265625 C 6.015625 -6.816406 5.320312 -7.09375 4.5 -7.09375 Z M 2.5 -7.09375 "/></g></g></g><g fill="#ffffff" fill-opacity="1"><g transform="translate(161.778106, 159.500937)"><g><path d="M 4.828125 0 L 3.359375 0 L 0.03125 -8.359375 L 1.546875 -8.359375 L 4.125 -1.5625 L 6.734375 -8.359375 L 8.203125 -8.359375 Z M 4.828125 0 "/></g></g></g><g fill="#ffffff" fill-opacity="1"><g transform="translate(174.79581, 159.500937)"><g><path d="M 1.671875 -7.171875 C 2.523438 -7.984375 3.578125 -8.390625 4.828125 -8.390625 C 6.078125 -8.390625 7.128906 -7.984375 7.984375 -7.171875 C 8.835938 -6.367188 9.265625 -5.367188 9.265625 -4.171875 C 9.265625 -2.984375 8.835938 -1.976562 7.984375 -1.15625 C 7.128906 -0.34375 6.078125 0.0625 4.828125 0.0625 C 3.578125 0.0625 2.523438 -0.34375 1.671875 -1.15625 C 0.828125 -1.976562 0.40625 -2.984375 0.40625 -4.171875 C 0.40625 -5.367188 0.828125 -6.367188 1.671875 -7.171875 Z M 4.84375 -7.125 C 4.019531 -7.125 3.3125 -6.835938 2.71875 -6.265625 C 2.132812 -5.703125 1.84375 -5.003906 1.84375 -4.171875 C 1.84375 -3.347656 2.132812 -2.644531 2.71875 -2.0625 C 3.3125 -1.488281 4.019531 -1.203125 4.84375 -1.203125 C 5.664062 -1.203125 6.363281 -1.488281 6.9375 -2.0625 C 7.519531 -2.644531 7.8125 -3.347656 7.8125 -4.171875 C 7.8125 -5.003906 7.519531 -5.703125 6.9375 -6.265625 C 6.363281 -6.835938 5.664062 -7.125 4.84375 -7.125 Z M 4.84375 -7.125 "/></g></g></g><g fill="#ffffff" fill-opacity="1"><g transform="translate(189.24611, 159.500937)"><g><path d="M 4.796875 -8.390625 C 5.390625 -8.390625 5.960938 -8.273438 6.515625 -8.046875 C 7.078125 -7.828125 7.5625 -7.515625 7.96875 -7.109375 L 7.15625 -6.078125 C 6.851562 -6.398438 6.492188 -6.65625 6.078125 -6.84375 C 5.660156 -7.039062 5.242188 -7.140625 4.828125 -7.140625 C 3.984375 -7.140625 3.273438 -6.851562 2.703125 -6.28125 C 2.128906 -5.71875 1.84375 -5.023438 1.84375 -4.203125 C 1.84375 -3.367188 2.128906 -2.664062 2.703125 -2.09375 C 3.273438 -1.53125 3.984375 -1.25 4.828125 -1.25 C 5.691406 -1.25 6.46875 -1.582031 7.15625 -2.25 L 7.984375 -1.3125 C 7.554688 -0.894531 7.054688 -0.5625 6.484375 -0.3125 C 5.910156 -0.0625 5.332031 0.0625 4.75 0.0625 C 3.519531 0.0625 2.488281 -0.34375 1.65625 -1.15625 C 0.820312 -1.976562 0.40625 -2.988281 0.40625 -4.1875 C 0.40625 -5.375 0.828125 -6.367188 1.671875 -7.171875 C 2.523438 -7.984375 3.566406 -8.390625 4.796875 -8.390625 Z M 4.796875 -8.390625 "/></g></g></g><g fill="#ffffff" fill-opacity="1"><g transform="translate(202.347381, 159.500937)"><g><path d="M 6.5 -1.890625 L 2.28125 -1.890625 L 1.484375 0 L 0.015625 0 L 3.703125 -8.359375 L 5.140625 -8.359375 L 8.796875 0 L 7.296875 0 Z M 5.953125 -3.140625 L 4.375 -6.859375 L 2.8125 -3.140625 Z M 5.953125 -3.140625 "/></g></g></g><g fill="#ffffff" fill-opacity="1"><g transform="translate(215.93813, 159.500937)"><g><path d="M 4.796875 -8.390625 C 5.390625 -8.390625 5.960938 -8.273438 6.515625 -8.046875 C 7.078125 -7.828125 7.5625 -7.515625 7.96875 -7.109375 L 7.15625 -6.078125 C 6.851562 -6.398438 6.492188 -6.65625 6.078125 -6.84375 C 5.660156 -7.039062 5.242188 -7.140625 4.828125 -7.140625 C 3.984375 -7.140625 3.273438 -6.851562 2.703125 -6.28125 C 2.128906 -5.71875 1.84375 -5.023438 1.84375 -4.203125 C 1.84375 -3.367188 2.128906 -2.664062 2.703125 -2.09375 C 3.273438 -1.53125 3.984375 -1.25 4.828125 -1.25 C 5.691406 -1.25 6.46875 -1.582031 7.15625 -2.25 L 7.984375 -1.3125 C 7.554688 -0.894531 7.054688 -0.5625 6.484375 -0.3125 C 5.910156 -0.0625 5.332031 0.0625 4.75 0.0625 C 3.519531 0.0625 2.488281 -0.34375 1.65625 -1.15625 C 0.820312 -1.976562 0.40625 -2.988281 0.40625 -4.1875 C 0.40625 -5.375 0.828125 -6.367188 1.671875 -7.171875 C 2.523438 -7.984375 3.566406 -8.390625 4.796875 -8.390625 Z M 4.796875 -8.390625 "/></g></g></g><g fill="#ffffff" fill-opacity="1"><g transform="translate(229.039401, 159.500937)"><g><path d="M 2.5 0 L 1.09375 0 L 1.09375 -8.359375 L 2.5 -8.359375 Z M 2.5 0 "/></g></g></g><g fill="#ffffff" fill-opacity="1"><g transform="translate(237.425052, 159.500937)"><g><path d="M 6.5 -1.890625 L 2.28125 -1.890625 L 1.484375 0 L 0.015625 0 L 3.703125 -8.359375 L 5.140625 -8.359375 L 8.796875 0 L 7.296875 0 Z M 5.953125 -3.140625 L 4.375 -6.859375 L 2.8125 -3.140625 Z M 5.953125 -3.140625 "/></g></g></g></svg>